<svg id="f9c6a566-0f26-4d72-a319-744a63895c58" data-name="Режим изоляции" xmlns="http://www.w3.org/2000/svg" viewBox="0 0 154.51 90.26"><defs><style>.\33 1e58500-78a1-4e8b-9d64-8c69166c1c9a{font-size:18px;font-family:Arciform Sans;}.\37 99ec189-698a-4542-aefe-6987fa586720{letter-spacing:1px;}.\38 0bf6d51-6ef3-4108-934f-55d332e6ea26{fill:#cd004d;}</style></defs><title>logo</title><text class="31e58500-78a1-4e8b-9d64-8c69166c1c9a" transform="translate(0 15.3)"><tspan class="799ec189-698a-4542-aefe-6987fa586720">s</tspan><tspan class="799ec189-698a-4542-aefe-6987fa586720" x="8.55" y="0">t</tspan><tspan x="16.07" y="0">udio</tspan></text><path d="M74.86,45c0-.93,0-1.87,0-2.8a0.29,0.29,0,0,0-.25-0.34,7.14,7.14,0,0,1-5.12-6.69,7.22,7.22,0,0,1,1.1-4,0.74,0.74,0,0,0,.08-0.48c-0.1-.53-0.22-1.06-0.36-1.58a0.78,0.78,0,0,0-.3-0.43,12.88,12.88,0,0,1-5.95-8.07A12.36,12.36,0,0,1,65,11.9,12.56,12.56,0,0,1,73.73,5a12.45,12.45,0,0,1,10.72,2.3,12.44,12.44,0,0,1,4.94,8.13,12.69,12.69,0,0,1-3.21,10.9,12.56,12.56,0,0,1-3,2.43,0.57,0.57,0,0,0-.23.32q-0.22.85-.39,1.72a0.57,0.57,0,0,0,.06.38,7.12,7.12,0,0,1-3.81,10.63,0.51,0.51,0,0,0-.45.6c0,0.73,0,1.46,0,2.2a2.51,2.51,0,0,0,.07.41h0.14A0.94,0.94,0,0,1,78.78,45a10.13,10.13,0,0,0,7.14-14,0.36,0.36,0,0,1,.15-0.52A16,16,0,0,0,92.58,18.3a15.24,15.24,0,0,0-1-6.17A15.82,15.82,0,0,0,83.5,3.21a14.49,14.49,0,0,0-4.58-1.38l-1.71-.2H75.93a1.31,1.31,0,0,1-.2.06C75,1.79,74.18,1.85,73.42,2A15.4,15.4,0,0,0,66.82,5,16,16,0,0,0,61,14.67c-0.12.66-.19,1.33-0.28,2v1.84c0,0.08,0,.16.06,0.24,0.12,0.81.19,1.64,0.37,2.44a15.55,15.55,0,0,0,4.81,8.22c0.49,0.45,1,.86,1.54,1.29,0,0.06,0,.13-0.07.19a10.12,10.12,0,0,0,5,13.33,21.26,21.26,0,0,0,2.28.8h0.21Z" transform="translate(0 2.13)"/><path class="80bf6d51-6ef3-4108-934f-55d332e6ea26" d="M3.6,69.74A3.66,3.66,0,0,1,0,66.14V22.86a3.67,3.67,0,0,1,3.6-3.67H14a27.35,27.35,0,0,1,10.8,2.23,23.94,23.94,0,0,1,8.42,6.19,24.81,24.81,0,0,1,5.11,9,25.88,25.88,0,0,1,1,10.8A25.27,25.27,0,0,1,14.26,69.74H3.6Zm10.66-7.2A18.06,18.06,0,0,0,32.19,46.62a17.89,17.89,0,0,0-4.25-14.26,18.53,18.53,0,0,0-13.9-6H7.2V62.54h7.06Z" transform="translate(0 2.13)"/><path class="80bf6d51-6ef3-4108-934f-55d332e6ea26" d="M65.16,37.12a3.61,3.61,0,0,1-3.6,3.6A10.94,10.94,0,0,0,50.62,51.67V66.14a3.56,3.56,0,1,1-7.13,0V51.67A18.09,18.09,0,0,1,61.56,33.59,3.55,3.55,0,0,1,65.16,37.12Z" transform="translate(0 2.13)"/><path class="80bf6d51-6ef3-4108-934f-55d332e6ea26" d="M76.68,30.39a3.56,3.56,0,0,0,2.52-6,3.56,3.56,0,1,0-5,5A3.6,3.6,0,0,0,76.68,30.39Z" transform="translate(0 2.13)"/><path class="80bf6d51-6ef3-4108-934f-55d332e6ea26" d="M76.68,33.59a3.55,3.55,0,0,0-3.6,3.53v29a3.56,3.56,0,1,0,7.13,0v-29A3.53,3.53,0,0,0,76.68,33.59Z" transform="translate(0 2.13)"/><path class="80bf6d51-6ef3-4108-934f-55d332e6ea26" d="M116.93,38.49l-10.8,28.8a3.72,3.72,0,0,1-3.38,2.38h-0.07a3.67,3.67,0,0,1-3.38-2.38l-10.8-28.8A3.58,3.58,0,0,1,95.18,36l7.56,20.09L110.23,36A3.58,3.58,0,1,1,116.93,38.49Z" transform="translate(0 2.13)"/><path class="80bf6d51-6ef3-4108-934f-55d332e6ea26" d="M154.51,51.59a3.55,3.55,0,0,1-3.6,3.53H126.07a11,11,0,0,0,10.37,7.42,14.13,14.13,0,0,0,8.06-2.38c1.66-1.08,3.89-.07,4.75,1.66s-0.07,3.67-1.73,4.75a17.62,17.62,0,0,1-11.09,3.1,18.07,18.07,0,0,1,0-36.15C145.15,33.52,154.51,39.86,154.51,51.59ZM126.07,48h20.81c-1.51-5-6.12-7.34-10.44-7.34A11,11,0,0,0,126.07,48Z" transform="translate(0 2.13)"/><path d="M5.79,81.38c0,3.54-1.22,4.9-2.73,4.9S0.44,84.61.44,81.43s1.12-4.82,2.77-4.82S5.79,78.36,5.79,81.38Zm-4.23.07c0,1.95.38,3.88,1.57,3.88s1.54-2.06,1.54-3.91-0.32-3.85-1.56-3.85S1.56,79.53,1.56,81.45Z" transform="translate(0 2.13)"/><path d="M15.38,76.73v0.94H12.46v2.83a4.1,4.1,0,0,1,.71-0.06,2.83,2.83,0,0,1,2,.74,2.74,2.74,0,0,1,.8,2.06,3,3,0,0,1-.67,2,3.18,3.18,0,0,1-2.52,1,7.63,7.63,0,0,1-1.42-.1v-9.4h4ZM12.46,85.3a2.34,2.34,0,0,0,.55,0,1.73,1.73,0,0,0,1.44-.64,2.26,2.26,0,0,0,.43-1.4,2,2,0,0,0-.5-1.39A1.84,1.84,0,0,0,13,81.33a3.57,3.57,0,0,0-.53,0V85.3Z" transform="translate(0 2.13)"/><path d="M21.74,76.73l1.12,3.84c0.18,0.59.31,1.11,0.43,1.64h0c0.11-.46.22-1.08,0.35-1.67l0.84-3.81h1.09l-1.12,4.2a22.61,22.61,0,0,1-1.33,4,2.17,2.17,0,0,1-1.78,1.36,1.79,1.79,0,0,1-.5-0.06l0.06-.88a1.43,1.43,0,0,0,.28,0c0.77,0,1.29-1.08,1.48-1.75a0.82,0.82,0,0,0,0-.55l-2.12-6.35h1.16Z" transform="translate(0 2.13)"/><path d="M31.85,76.73v3.17c0,0.9.29,1.63,1.27,1.63a2.2,2.2,0,0,0,1.09-.29v-4.5h1.06v9.44H34.23V82.09H34.17a3.27,3.27,0,0,1-1.4.34c-1.23,0-2-.74-2-2.33V76.73h1.06Z" transform="translate(0 2.13)"/><path d="M44.71,81.68H42.35v3.54H45v0.94H41.27V76.73h3.6v0.94H42.35v3.11h2.37v0.91Z" transform="translate(0 2.13)"/><path d="M51.6,76.73v4h2.65v-4h1.08v9.44H54.25V81.75H51.6v4.41H50.52V76.73H51.6Z" transform="translate(0 2.13)"/><path d="M62.28,76.73V80.1c0,1.64,0,2.84-.13,4.33h0c0.32-1,.83-2.27,1.22-3.29l1.7-4.41h1v9.44h-1V82.9c0-2,0-3.19.11-4.45h0c-0.34,1.18-.77,2.21-1.13,3.17l-1.77,4.55h-1V76.73h1Z" transform="translate(0 2.13)"/><path d="M75.54,81.68H73.17v3.54h2.69v0.94H72.09V76.73h3.6v0.94H73.17v3.11h2.37v0.91Z" transform="translate(0 2.13)"/><path d="M92,86a3,3,0,0,1-1.34.25c-1.85,0-3.17-1.48-3.17-4.69,0-3.73,1.85-4.92,3.33-4.92a2.35,2.35,0,0,1,1.18.24l-0.24.91a2.07,2.07,0,0,0-1-.2c-1,0-2.19,1-2.19,3.87s1.06,3.84,2.21,3.84a2.33,2.33,0,0,0,1-.21Z" transform="translate(0 2.13)"/><path d="M108.64,76.73v8.52h0.63l-0.06,2.87h-0.84l-0.07-2h-4.17l-0.06,2h-0.85l-0.06-2.87h0.63a12.5,12.5,0,0,0,.76-2.55,21,21,0,0,0,.29-3.84V76.73h3.8Zm-2.82,2.35a23,23,0,0,1-.25,3.75,14.34,14.34,0,0,1-.67,2.4h2.68V77.66h-1.75v1.41Z" transform="translate(0 2.13)"/><path d="M115.23,76.73l1.12,3.84c0.18,0.59.31,1.11,0.43,1.64h0c0.11-.46.22-1.08,0.35-1.67L118,76.73h1.09L118,80.93a22.53,22.53,0,0,1-1.33,4,2.17,2.17,0,0,1-1.78,1.36,1.8,1.8,0,0,1-.5-0.06l0.06-.88a1.42,1.42,0,0,0,.28,0c0.77,0,1.29-1.08,1.48-1.75a0.82,0.82,0,0,0,0-.55l-2.12-6.35h1.16Z" transform="translate(0 2.13)"/><path d="M125.37,76.73v8.5h2v-8.5h1.05v8.5h2v-8.5h1.05v9.44H124.3V76.73h1.06Z" transform="translate(0 2.13)"/><path d="M142.4,81.38c0,3.54-1.22,4.9-2.73,4.9s-2.62-1.67-2.62-4.85,1.12-4.82,2.77-4.82S142.4,78.36,142.4,81.38Zm-4.23.07c0,1.95.38,3.88,1.57,3.88s1.54-2.06,1.54-3.91-0.32-3.85-1.55-3.85S138.17,79.53,138.17,81.45Z" transform="translate(0 2.13)"/><path d="M149,76.73V80.1c0,1.64,0,2.84-.13,4.33h0c0.32-1,.83-2.27,1.22-3.29l1.7-4.41h1v9.44h-1V82.9c0-2,0-3.19.11-4.45h0c-0.34,1.18-.77,2.21-1.13,3.17L149,86.17h-1V76.73h1ZM149.6,75a0.79,0.79,0,0,0,1.58,0H152a1.41,1.41,0,0,1-1.6,1.36A1.4,1.4,0,0,1,148.81,75h0.78Z" transform="translate(0 2.13)"/></svg>