<svg id="f9c6a566-0f26-4d72-a319-744a63895c58" data-name="Режим изоляции" xmlns="http://www.w3.org/2000/svg" viewBox="0 0 154.51 90.26"><defs><style>.\33 1e58500-78a1-4e8b-9d64-8c69166c1c9a{font-size:18px;font-family:Arciform Sans}.\37 99ec189-698a-4542-aefe-6987fa586720{letter-spacing:1px}.\38 0bf6d51-6ef3-4108-934f-55d332e6ea26{fill:#cd004d}</style></defs><title>logo</title><text class="31e58500-78a1-4e8b-9d64-8c69166c1c9a" transform="translate(0 15.3)"><tspan class="799ec189-698a-4542-aefe-6987fa586720">s</tspan><tspan class="799ec189-698a-4542-aefe-6987fa586720" x="8.55" y="0">t</tspan><tspan x="16.07" y="0">udio</tspan></text><path d="M74.86 45v-2.8a.29.29 0 0 0-.25-.34 7.14 7.14 0 0 1-5.12-6.69 7.22 7.22 0 0 1 1.1-4 .74.74 0 0 0 .08-.48c-.1-.53-.22-1.06-.36-1.58a.78.78 0 0 0-.3-.43 12.88 12.88 0 0 1-5.95-8.07A12.36 12.36 0 0 1 65 11.9 12.56 12.56 0 0 1 73.73 5a12.45 12.45 0 0 1 10.72 2.3 12.44 12.44 0 0 1 4.94 8.13 12.69 12.69 0 0 1-3.21 10.9 12.56 12.56 0 0 1-3 2.43.57.57 0 0 0-.23.32q-.22.85-.39 1.72a.57.57 0 0 0 .06.38 7.12 7.12 0 0 1-3.81 10.63.51.51 0 0 0-.45.6v2.2a2.51 2.51 0 0 0 .07.41h.14a.94.94 0 0 1 .21-.02 10.13 10.13 0 0 0 7.14-14 .36.36 0 0 1 .15-.52 16 16 0 0 0 6.51-12.18 15.24 15.24 0 0 0-1-6.17 15.82 15.82 0 0 0-8.08-8.92 14.49 14.49 0 0 0-4.58-1.38l-1.71-.2h-1.28a1.31 1.31 0 0 1-.2.06c-.73.1-1.55.16-2.31.31a15.4 15.4 0 0 0-6.6 3A16 16 0 0 0 61 14.67c-.12.66-.19 1.33-.28 2v1.84c0 .08 0 .16.06.24.12.81.19 1.64.37 2.44a15.55 15.55 0 0 0 4.81 8.22c.49.45 1 .86 1.54 1.29 0 .06 0 .13-.07.19a10.12 10.12 0 0 0 5 13.33 21.26 21.26 0 0 0 2.28.8h.21z" transform="translate(0 2.13)"/><path class="80bf6d51-6ef3-4108-934f-55d332e6ea26" d="M3.6 69.74a3.66 3.66 0 0 1-3.6-3.6V22.86a3.67 3.67 0 0 1 3.6-3.67H14a27.35 27.35 0 0 1 10.8 2.23 23.94 23.94 0 0 1 8.42 6.19 24.81 24.81 0 0 1 5.11 9 25.88 25.88 0 0 1 1 10.8 25.27 25.27 0 0 1-25.07 22.33H3.6zm10.66-7.2a18.06 18.06 0 0 0 17.93-15.92 17.89 17.89 0 0 0-4.25-14.26 18.53 18.53 0 0 0-13.9-6H7.2v36.18h7.06zm50.9-25.42a3.61 3.61 0 0 1-3.6 3.6 10.94 10.94 0 0 0-10.94 10.95v14.47a3.56 3.56 0 1 1-7.13 0V51.67a18.09 18.09 0 0 1 18.07-18.08 3.55 3.55 0 0 1 3.6 3.53zm11.52-6.73a3.56 3.56 0 0 0 2.52-6 3.56 3.56 0 1 0-5 5 3.6 3.6 0 0 0 2.48 1zm0 3.2a3.55 3.55 0 0 0-3.6 3.53v29a3.56 3.56 0 1 0 7.13 0v-29a3.53 3.53 0 0 0-3.53-3.53zm40.25 4.9l-10.8 28.8a3.72 3.72 0 0 1-3.38 2.38h-.07a3.67 3.67 0 0 1-3.38-2.38l-10.8-28.8A3.58 3.58 0 0 1 95.18 36l7.56 20.09L110.23 36a3.58 3.58 0 1 1 6.7 2.49zm37.58 13.1a3.55 3.55 0 0 1-3.6 3.53h-24.84a11 11 0 0 0 10.37 7.42 14.13 14.13 0 0 0 8.06-2.38c1.66-1.08 3.89-.07 4.75 1.66s-.07 3.67-1.73 4.75a17.62 17.62 0 0 1-11.09 3.1 18.07 18.07 0 0 1 0-36.15c8.72 0 18.08 6.34 18.08 18.07zM126.07 48h20.81c-1.51-5-6.12-7.34-10.44-7.34A11 11 0 0 0 126.07 48z" transform="translate(0 2.13)"/><path d="M5.79 81.38c0 3.54-1.22 4.9-2.73 4.9S.44 84.61.44 81.43s1.12-4.82 2.77-4.82 2.58 1.75 2.58 4.77zm-4.23.07c0 1.95.38 3.88 1.57 3.88s1.54-2.06 1.54-3.91-.32-3.85-1.56-3.85-1.55 1.96-1.55 3.88zm13.82-4.72v.94h-2.92v2.83a4.1 4.1 0 0 1 .71-.06 2.83 2.83 0 0 1 2 .74 2.74 2.74 0 0 1 .8 2.06 3 3 0 0 1-.67 2 3.18 3.18 0 0 1-2.52 1 7.63 7.63 0 0 1-1.42-.1v-9.4h4zm-2.92 8.57a2.34 2.34 0 0 0 .55 0 1.73 1.73 0 0 0 1.44-.64 2.26 2.26 0 0 0 .43-1.4 2 2 0 0 0-.5-1.39 1.84 1.84 0 0 0-1.38-.54 3.57 3.57 0 0 0-.53 0v3.97zm9.28-8.57l1.12 3.84c.18.59.31 1.11.43 1.64.11-.46.22-1.08.35-1.67l.84-3.81h1.09l-1.12 4.2a22.61 22.61 0 0 1-1.33 4 2.17 2.17 0 0 1-1.78 1.36 1.79 1.79 0 0 1-.5-.06l.06-.88a1.43 1.43 0 0 0 .28 0c.77 0 1.29-1.08 1.48-1.75a.82.82 0 0 0 0-.55l-2.12-6.35h1.16zm10.11 0v3.17c0 .9.29 1.63 1.27 1.63a2.2 2.2 0 0 0 1.09-.29v-4.5h1.06v9.44h-1.04v-4.09h-.06a3.27 3.27 0 0 1-1.4.34c-1.23 0-2-.74-2-2.33v-3.37h1.06zm12.86 4.95h-2.36v3.54H45v.94h-3.73v-9.43h3.6v.94h-2.52v3.11h2.37v.91zm6.89-4.95v4h2.65v-4h1.08v9.44h-1.08v-4.42H51.6v4.41h-1.08v-9.43h1.08zm10.68 0v3.37c0 1.64 0 2.84-.13 4.33.32-1 .83-2.27 1.22-3.29l1.7-4.41h1v9.44h-1V82.9c0-2 0-3.19.11-4.45-.34 1.18-.77 2.21-1.13 3.17l-1.77 4.55h-1v-9.44h1zm13.26 4.95h-2.37v3.54h2.69v.94h-3.77v-9.43h3.6v.94h-2.52v3.11h2.37v.91zM92 86a3 3 0 0 1-1.34.25c-1.85 0-3.17-1.48-3.17-4.69 0-3.73 1.85-4.92 3.33-4.92a2.35 2.35 0 0 1 1.18.24l-.24.91a2.07 2.07 0 0 0-1-.2c-1 0-2.19 1-2.19 3.87s1.06 3.84 2.21 3.84a2.33 2.33 0 0 0 1-.21zm16.64-9.27v8.52h.63l-.06 2.87h-.84l-.07-2h-4.17l-.06 2h-.85l-.06-2.87h.63a12.5 12.5 0 0 0 .76-2.55 21 21 0 0 0 .29-3.84v-2.13h3.8zm-2.82 2.35a23 23 0 0 1-.25 3.75 14.34 14.34 0 0 1-.67 2.4h2.68v-7.57h-1.75v1.41zm9.41-2.35l1.12 3.84c.18.59.31 1.11.43 1.64.11-.46.22-1.08.35-1.67l.87-3.81h1.09l-1.09 4.2a22.53 22.53 0 0 1-1.33 4 2.17 2.17 0 0 1-1.78 1.36 1.8 1.8 0 0 1-.5-.06l.06-.88a1.42 1.42 0 0 0 .28 0c.77 0 1.29-1.08 1.48-1.75a.82.82 0 0 0 0-.55l-2.12-6.35h1.16zm10.14 0v8.5h2v-8.5h1.05v8.5h2v-8.5h1.05v9.44h-7.17v-9.44h1.06zm17.03 4.65c0 3.54-1.22 4.9-2.73 4.9s-2.62-1.67-2.62-4.85 1.12-4.82 2.77-4.82 2.58 1.75 2.58 4.77zm-4.23.07c0 1.95.38 3.88 1.57 3.88s1.54-2.06 1.54-3.91-.32-3.85-1.55-3.85-1.56 1.96-1.56 3.88zM149 76.73v3.37c0 1.64 0 2.84-.13 4.33.32-1 .83-2.27 1.22-3.29l1.7-4.41h1v9.44h-1V82.9c0-2 0-3.19.11-4.45-.34 1.18-.77 2.21-1.13 3.17L149 86.17h-1v-9.44h1zm.6-1.73a.79.79 0 0 0 1.58 0h.82a1.41 1.41 0 0 1-1.6 1.36 1.4 1.4 0 0 1-1.59-1.36h.78z" transform="translate(0 2.13)"/></svg>